<svg width="96" height="96" viewBox="0 0 96 96" fill="none" xmlns="http://www.w3.org/2000/svg">
<g filter="url(#filter0_d_265_287)">
<path d="M84.1744 42.4809C83.9109 42.8617 83.6054 43.2173 83.2621 43.5421L83.2367 43.5661L83.212 43.5906C82.1469 44.6461 80.0643 46.0808 76.3886 46.0808H75.6499H73.6131L72.8616 47.9739C71.0579 52.5169 68.7158 57.4151 64.8831 61.7605L64.8828 61.7608C62.609 64.3395 59.9249 66.53 56.9414 68.266C53.2795 70.3399 49.2941 71.7838 45.1521 72.5451L45.1454 72.5463C42.1038 73.1125 39.0162 73.4009 35.9358 73.3878H35.9231C28.9246 73.3878 23.1617 72.0398 19.9005 70.0392L19.8961 70.0365C17.0771 68.3137 14.7465 65.4206 13.1148 61.1383C11.7213 57.2954 11.005 53.2395 11 49.1536H63.2021H63.2347L63.2673 49.1529C63.7681 49.142 64.8886 49.0491 66.1545 48.8139C67.3875 48.5849 69.0584 48.1684 70.4733 47.3813L73.2505 45.8362L71.548 43.1526C70.3741 41.3022 69.9991 39.1047 70.5953 36.5881C70.7841 35.794 71.0476 35.0283 71.3838 34.2964C72.5019 35.3203 73.9797 37.1188 74.3536 39.698L74.8022 42.7925L77.8754 42.2162C78.7735 42.0479 79.7131 41.9749 80.6958 41.9749C82.2726 41.9749 83.4164 42.2248 84.1744 42.4809ZM59.2821 40.121V41.6482H56.9883V40.121H59.2821ZM49.455 31.0605V32.5877H47.1472V31.0605H49.455ZM49.455 22V23.5411H47.1472V22H49.455ZM37.3758 31.0605H39.6696V32.5877H37.3758V31.0605ZM27.479 31.0605H29.7867V32.5877H27.479V31.0605ZM17.7633 40.1071H20.0572V41.6342H17.7633V40.1071ZM29.8007 41.6342H27.4929V40.1071H29.8007V41.6342ZM37.3758 41.6482V40.121H39.6696V41.6482H37.3758ZM49.455 41.6482H47.1472V40.121H49.455V41.6482Z" stroke="#F60390" stroke-width="6"/>
</g>
<defs>
<filter id="filter0_d_265_287" x="-6" y="-4" width="108" height="108" filterUnits="userSpaceOnUse" color-interpolation-filters="sRGB">
<feFlood flood-opacity="0" result="BackgroundImageFix"/>
<feColorMatrix in="SourceAlpha" type="matrix" values="0 0 0 0 0 0 0 0 0 0 0 0 0 0 0 0 0 0 127 0" result="hardAlpha"/>
<feOffset dy="2"/>
<feGaussianBlur stdDeviation="3"/>
<feComposite in2="hardAlpha" operator="out"/>
<feColorMatrix type="matrix" values="0 0 0 0 0.964706 0 0 0 0 0.0117647 0 0 0 0 0.564706 0 0 0 0.8 0"/>
<feBlend mode="normal" in2="BackgroundImageFix" result="effect1_dropShadow_265_287"/>
<feBlend mode="normal" in="SourceGraphic" in2="effect1_dropShadow_265_287" result="shape"/>
</filter>
</defs>
</svg>
