<svg width="96" height="98" viewBox="0 0 96 98" fill="none" xmlns="http://www.w3.org/2000/svg">
<g filter="url(#filter0_d_265_95)">
<path fill-rule="evenodd" clip-rule="evenodd" d="M49.4142 12.6446L83.3553 46.5857C84.1364 47.3668 84.1364 48.6331 83.3553 49.4142L49.4142 83.3553C48.6332 84.1363 47.3668 84.1363 46.5858 83.3553L12.6447 49.4142C11.8636 48.6331 11.8636 47.3668 12.6447 46.5857L36.3676 22.8628L42.61 29.1064C41.6802 31.3335 42.1163 33.9958 43.9298 35.8084C44.5236 36.404 45.207 36.8471 45.9384 37.1466V59.1123C45.207 59.4118 44.5219 59.8593 43.9298 60.4505C41.5356 62.8438 41.5356 66.7233 43.9298 69.121C46.3223 71.5143 50.2044 71.5143 52.5986 69.121C54.9928 66.7242 54.9928 62.8447 52.5986 60.4505C52.1128 59.9647 51.5617 59.5799 50.9784 59.2908L50.9784 37.5279L59.2493 45.7979C58.336 48.0163 58.7818 50.663 60.5822 52.4652C62.979 54.8602 66.8585 54.8602 69.2545 52.4652C71.6487 50.0692 71.6487 46.1897 69.2545 43.7955C67.5411 42.0795 65.0668 41.6007 62.9207 42.3407L54.0526 33.4734C54.7935 31.3274 54.3129 28.8548 52.5986 27.1397C50.8948 25.435 48.4431 24.9501 46.3049 25.6727L39.9313 19.2991L46.5858 12.6446C47.3668 11.8636 48.6332 11.8636 49.4142 12.6446ZM42.3431 8.40197C45.4673 5.27778 50.5327 5.27778 53.6569 8.40197L87.598 42.3431C90.7222 45.4673 90.7222 50.5326 87.598 53.6568L53.6569 87.5979C50.5327 90.7221 45.4673 90.7221 42.3431 87.5979L8.40202 53.6568C5.27783 50.5326 5.27783 45.4673 8.40202 42.3431L42.3431 8.40197Z" fill="#F60390"/>
</g>
<defs>
<filter id="filter0_d_265_95" x="-6" y="-4" width="108" height="108" filterUnits="userSpaceOnUse" color-interpolation-filters="sRGB">
<feFlood flood-opacity="0" result="BackgroundImageFix"/>
<feColorMatrix in="SourceAlpha" type="matrix" values="0 0 0 0 0 0 0 0 0 0 0 0 0 0 0 0 0 0 127 0" result="hardAlpha"/>
<feOffset dy="2"/>
<feGaussianBlur stdDeviation="3"/>
<feComposite in2="hardAlpha" operator="out"/>
<feColorMatrix type="matrix" values="0 0 0 0 0.964706 0 0 0 0 0.0117647 0 0 0 0 0.564706 0 0 0 0.8 0"/>
<feBlend mode="normal" in2="BackgroundImageFix" result="effect1_dropShadow_265_95"/>
<feBlend mode="normal" in="SourceGraphic" in2="effect1_dropShadow_265_95" result="shape"/>
</filter>
</defs>
</svg>
