<svg width="96" height="96" viewBox="0 0 96 96" fill="none" xmlns="http://www.w3.org/2000/svg">
<g filter="url(#filter0_d_265_61)">
<path fill-rule="evenodd" clip-rule="evenodd" d="M72 14H24C18.4772 14 14 18.4772 14 24V29H82V24C82 18.4772 77.5229 14 72 14ZM8 29V35V72C8 80.8366 15.1634 88 24 88H72C80.8366 88 88 80.8366 88 72V35V29V24C88 15.1634 80.8366 8 72 8H24C15.1634 8 8 15.1634 8 24V29ZM82 72V35H14V72C14 77.5229 18.4772 82 24 82H72C77.5229 82 82 77.5229 82 72ZM34.4962 49.6641C35.4152 48.2855 35.0427 46.4229 33.6641 45.5038C32.2855 44.5848 30.4229 44.9573 29.5038 46.3359L21.5038 58.3359C20.8321 59.3436 20.8321 60.6564 21.5038 61.6641L29.5038 73.6641C30.4229 75.0427 32.2855 75.4152 33.6641 74.4962C35.0427 73.5771 35.4152 71.7145 34.4962 70.3359L27.6056 60L34.4962 49.6641ZM62.3359 45.5038C60.9573 46.4229 60.5848 48.2855 61.5038 49.6641L68.3944 60L61.5038 70.3359C60.5848 71.7145 60.9573 73.5771 62.3359 74.4962C63.7145 75.4152 65.5771 75.0427 66.4962 73.6641L74.4962 61.6641C75.168 60.6564 75.168 59.3436 74.4962 58.3359L66.4962 46.3359C65.5771 44.9573 63.7145 44.5848 62.3359 45.5038ZM54.8987 44.773C55.3256 43.1721 54.3739 41.5282 52.773 41.1013C51.1721 40.6744 49.5282 41.6261 49.1013 43.227L41.1013 73.227C40.6744 74.8279 41.6261 76.4718 43.227 76.8987C44.8279 77.3256 46.4718 76.3739 46.8987 74.773L54.8987 44.773Z" fill="#F60390"/>
</g>
<defs>
<filter id="filter0_d_265_61" x="-6" y="-4" width="108" height="108" filterUnits="userSpaceOnUse" color-interpolation-filters="sRGB">
<feFlood flood-opacity="0" result="BackgroundImageFix"/>
<feColorMatrix in="SourceAlpha" type="matrix" values="0 0 0 0 0 0 0 0 0 0 0 0 0 0 0 0 0 0 127 0" result="hardAlpha"/>
<feOffset dy="2"/>
<feGaussianBlur stdDeviation="3"/>
<feComposite in2="hardAlpha" operator="out"/>
<feColorMatrix type="matrix" values="0 0 0 0 0.964706 0 0 0 0 0.0117647 0 0 0 0 0.564706 0 0 0 0.8 0"/>
<feBlend mode="normal" in2="BackgroundImageFix" result="effect1_dropShadow_265_61"/>
<feBlend mode="normal" in="SourceGraphic" in2="effect1_dropShadow_265_61" result="shape"/>
</filter>
</defs>
</svg>
