<svg width="96" height="96" viewBox="0 0 96 96" fill="none" xmlns="http://www.w3.org/2000/svg">
<g filter="url(#filter0_d_265_275)">
<path d="M81.7207 47.3887C81.7207 42.8656 78.4619 39.0915 74.1691 38.2853L84.4374 8H35.9004L46.1842 38.3467C42.0409 39.2689 38.9328 42.9717 38.9328 47.3887C38.9328 50.7058 40.6858 53.6194 43.313 55.2566C42.0494 57.1391 40.5508 58.9107 38.8335 60.5307C36.1103 63.0999 33.0762 65.0484 29.8052 66.3302C26.5107 64.2606 25.118 60.3581 26.5644 56.958L26.6776 56.6921C26.7484 56.5257 26.8194 56.3587 26.8901 56.1918C30.5086 54.9301 33.1132 51.4856 33.1132 47.4421C33.1132 42.3333 28.9569 38.1772 23.848 38.1772C18.7392 38.1772 14.5831 42.3333 14.5831 47.4421C14.5831 50.0207 15.6428 52.3557 17.3485 54.0371C17.0392 54.6964 16.7141 55.3664 16.3799 56.0529C14.8203 59.2562 13.0526 62.8872 12.384 66.919C11.0561 74.9265 13.1978 81.3276 18.4147 84.9432C21.5804 87.1373 24.7951 88.0003 28.0302 88C34.122 87.9997 40.284 84.9395 46.311 81.9458C50.6519 79.79 55.1401 77.5605 59.5738 76.4672C61.2235 76.0603 62.9209 75.8155 64.718 75.5563C68.2816 75.0422 71.9668 74.5108 75.231 72.6204C79.0145 70.4288 81.6047 66.7526 82.337 62.5346C82.9657 58.9136 82.2088 55.2872 80.3633 52.2114C81.2238 50.8057 81.7207 49.1543 81.7207 47.3887ZM78.0835 47.3887C78.0835 50.4919 75.559 53.0167 72.4555 53.0167C69.3526 53.0167 66.8277 50.4919 66.8277 47.3887C66.8277 44.2855 69.3526 41.7609 72.4555 41.7609C75.559 41.7609 78.0835 44.2855 78.0835 47.3887ZM79.3636 11.6371L70.2962 38.3804C69.9032 38.4746 69.5201 38.5935 69.148 38.7364L60.1907 20.4635L51.2073 38.6283C50.8191 38.4944 50.4195 38.3844 50.0098 38.3029L40.9735 11.6371H79.3636ZM48.1978 41.7609C51.301 41.7609 53.8255 44.2855 53.8255 47.3887C53.8255 50.4919 51.301 53.0167 48.1978 53.0167C45.0948 53.0167 42.57 50.4919 42.57 47.3887C42.57 44.2855 45.0948 41.7609 48.1978 41.7609ZM23.848 41.8144C26.9515 41.8144 29.4761 44.3389 29.4761 47.4421C29.4761 50.5454 26.9515 53.0702 23.848 53.0702C20.7451 53.0702 18.2203 50.5454 18.2203 47.4421C18.2203 44.3389 20.7451 41.8144 23.848 41.8144ZM78.7533 61.9124C78.2058 65.0668 76.2573 67.8225 73.4079 69.4727C70.7518 71.0112 67.5688 71.4704 64.1988 71.9563C62.3935 72.2166 60.5265 72.486 58.7029 72.9359C53.8807 74.1248 49.2099 76.4448 44.693 78.6884C35.6539 83.1781 27.8474 87.0552 20.4868 81.9538C15.095 78.217 15.344 71.3029 15.9722 67.5141C16.5542 64.004 18.128 60.7712 19.6501 57.6448C19.9135 57.1038 20.1693 56.5738 20.4203 56.0472C21.1752 56.3491 21.978 56.5548 22.8147 56.6482C21.2655 61.7615 23.702 67.3211 28.8159 69.9484L29.5157 70.308L30.2571 70.044C34.3 68.6043 38.0251 66.2937 41.3295 63.1763C43.4656 61.1614 45.3011 58.932 46.8104 56.5497C47.2631 56.6179 47.7263 56.6539 48.1978 56.6539C53.3066 56.6539 57.4629 52.4978 57.4629 47.3887C57.4629 44.6411 56.2595 42.1703 54.3535 40.472L60.1762 28.6976L66.0581 40.6964C64.2933 42.3845 63.1906 44.7594 63.1906 47.3887C63.1906 52.4978 67.3467 56.6539 72.4555 56.6539C74.4184 56.6539 76.2392 56.0387 77.7389 54.9935C78.7802 57.125 79.1681 59.5233 78.7533 61.9124Z" fill="#F60390"/>
</g>
<defs>
<filter id="filter0_d_265_275" x="-6" y="-4" width="108" height="108" filterUnits="userSpaceOnUse" color-interpolation-filters="sRGB">
<feFlood flood-opacity="0" result="BackgroundImageFix"/>
<feColorMatrix in="SourceAlpha" type="matrix" values="0 0 0 0 0 0 0 0 0 0 0 0 0 0 0 0 0 0 127 0" result="hardAlpha"/>
<feOffset dy="2"/>
<feGaussianBlur stdDeviation="3"/>
<feComposite in2="hardAlpha" operator="out"/>
<feColorMatrix type="matrix" values="0 0 0 0 0.964706 0 0 0 0 0.0117647 0 0 0 0 0.564706 0 0 0 0.8 0"/>
<feBlend mode="normal" in2="BackgroundImageFix" result="effect1_dropShadow_265_275"/>
<feBlend mode="normal" in="SourceGraphic" in2="effect1_dropShadow_265_275" result="shape"/>
</filter>
</defs>
</svg>
