<svg width="96" height="96" viewBox="0 0 96 96" fill="none" xmlns="http://www.w3.org/2000/svg">
<g filter="url(#filter0_d_265_77)">
<rect x="11" y="11" width="74" height="74" rx="13" stroke="#F60390" stroke-width="6"/>
<path d="M36.7539 62.7024V43.1907H43.5898V62.7024C43.5898 64.6034 43.1536 66.2506 42.2812 67.6438C41.4219 69.037 40.25 70.1178 38.7656 70.886C37.2943 71.6412 35.6406 72.0188 33.8047 72.0188C31.9036 72.0188 30.2109 71.6998 28.7266 71.0618C27.2552 70.4237 26.0964 69.4407 25.25 68.1125C24.4167 66.7844 24 65.0917 24 63.0344H30.875C30.875 63.998 30.9857 64.7532 31.207 65.3C31.4284 65.8339 31.7539 66.2115 32.1836 66.4329C32.6263 66.6412 33.1667 66.7454 33.8047 66.7454C34.4297 66.7454 34.957 66.5891 35.3867 66.2766C35.8294 65.9511 36.168 65.4889 36.4023 64.8899C36.6367 64.2779 36.7539 63.5487 36.7539 62.7024Z" fill="#F60390"/>
<path d="M66.5938 64.0696C66.5938 63.6269 66.5286 63.2297 66.3984 62.8782C66.2682 62.5136 66.0273 62.175 65.6758 61.8625C65.3242 61.55 64.8164 61.2375 64.1523 60.925C63.5013 60.5995 62.6419 60.261 61.5742 59.9094C60.3242 59.4928 59.1198 59.024 57.9609 58.5032C56.8021 57.9693 55.7669 57.3508 54.8555 56.6477C53.944 55.9316 53.2214 55.0982 52.6875 54.1477C52.1536 53.1842 51.8867 52.0644 51.8867 50.7883C51.8867 49.5644 52.1602 48.4641 52.707 47.4875C53.2539 46.498 54.0156 45.6581 54.9922 44.968C55.9818 44.2649 57.1406 43.731 58.4688 43.3665C59.7969 42.9889 61.2487 42.8 62.8242 42.8C64.9076 42.8 66.7435 43.1646 68.332 43.8938C69.9336 44.6099 71.1836 45.6321 72.082 46.9602C72.9935 48.2753 73.4492 49.8313 73.4492 51.6282H66.6328C66.6328 50.912 66.4831 50.2805 66.1836 49.7336C65.8971 49.1868 65.4609 48.7571 64.875 48.4446C64.2891 48.1321 63.5534 47.9758 62.668 47.9758C61.8086 47.9758 61.0859 48.106 60.5 48.3665C59.9141 48.6269 59.4714 48.9784 59.1719 49.4211C58.8724 49.8508 58.7227 50.3261 58.7227 50.8469C58.7227 51.2766 58.8398 51.6672 59.0742 52.0188C59.3216 52.3573 59.6667 52.6764 60.1094 52.9758C60.5651 53.2753 61.112 53.5618 61.75 53.8352C62.401 54.1086 63.1302 54.3756 63.9375 54.636C65.4479 55.1178 66.7891 55.6581 67.9609 56.2571C69.1458 56.843 70.1419 57.5136 70.9492 58.2688C71.7695 59.011 72.388 59.8573 72.8047 60.8079C73.2344 61.7584 73.4492 62.8326 73.4492 64.0305C73.4492 65.3066 73.2018 66.4394 72.707 67.429C72.2122 68.4185 71.5026 69.2584 70.5781 69.9485C69.6536 70.6256 68.5469 71.1399 67.2578 71.4915C65.9688 71.843 64.5299 72.0188 62.9414 72.0188C61.4831 72.0188 60.0443 71.8365 58.625 71.4719C57.2188 71.0943 55.9427 70.5214 54.7969 69.7532C53.651 68.9719 52.7331 67.9758 52.043 66.7649C51.3659 65.5409 51.0273 64.0891 51.0273 62.4094H57.9023C57.9023 63.2428 58.013 63.9459 58.2344 64.5188C58.4557 65.0917 58.7812 65.554 59.2109 65.9055C59.6406 66.2441 60.168 66.4915 60.793 66.6477C61.418 66.7909 62.1341 66.8625 62.9414 66.8625C63.8138 66.8625 64.5169 66.7389 65.0508 66.4915C65.5846 66.231 65.9753 65.8925 66.2227 65.4758C66.4701 65.0461 66.5938 64.5774 66.5938 64.0696Z" fill="#F60390"/>
</g>
<defs>
<filter id="filter0_d_265_77" x="-6" y="-4" width="108" height="108" filterUnits="userSpaceOnUse" color-interpolation-filters="sRGB">
<feFlood flood-opacity="0" result="BackgroundImageFix"/>
<feColorMatrix in="SourceAlpha" type="matrix" values="0 0 0 0 0 0 0 0 0 0 0 0 0 0 0 0 0 0 127 0" result="hardAlpha"/>
<feOffset dy="2"/>
<feGaussianBlur stdDeviation="3"/>
<feComposite in2="hardAlpha" operator="out"/>
<feColorMatrix type="matrix" values="0 0 0 0 0.964706 0 0 0 0 0.0117647 0 0 0 0 0.564706 0 0 0 0.8 0"/>
<feBlend mode="normal" in2="BackgroundImageFix" result="effect1_dropShadow_265_77"/>
<feBlend mode="normal" in="SourceGraphic" in2="effect1_dropShadow_265_77" result="shape"/>
</filter>
</defs>
</svg>
