<svg width="98" height="96" viewBox="0 0 98 96" fill="none" xmlns="http://www.w3.org/2000/svg">
<g filter="url(#filter0_d_265_89)">
<path fill-rule="evenodd" clip-rule="evenodd" d="M35.2154 15.5558C32.9086 14.8095 31.2211 14.9532 30.0351 15.6379C28.8491 16.3226 27.881 17.7122 27.3738 20.0831C26.8668 22.4537 26.8786 25.5832 27.4758 29.3106C27.6977 30.6956 27.9979 32.1483 28.3752 33.6567C31.7982 32.8895 35.5192 32.3075 39.4479 31.9413C41.7294 28.7221 44.0939 25.7906 46.4698 23.2098C45.3521 22.1289 44.2442 21.1425 43.1557 20.2578C40.2263 17.877 37.5219 16.302 35.2154 15.5558ZM49.2607 20.3443C48.0592 19.1819 46.8621 18.1157 45.6785 17.1537C42.5273 14.5926 39.3875 12.7014 36.4466 11.75C33.5059 10.7987 30.5427 10.726 28.0351 12.1738C25.5274 13.6216 24.1088 16.2241 23.4623 19.2464C22.8158 22.2691 22.8837 25.9338 23.5261 29.9434C23.7674 31.4493 24.0922 33.0192 24.4981 34.6409C22.8908 35.1002 21.3688 35.6038 19.944 36.1478C16.1504 37.5963 12.9427 39.3699 10.6483 41.4411C8.35407 43.5121 6.80957 46.0419 6.80957 48.9375C6.80957 51.8331 8.35407 54.363 10.6483 56.434C12.9427 58.5052 16.1504 60.2787 19.944 61.7272C21.3688 62.2712 22.8908 62.7749 24.4982 63.2341C24.0922 64.8558 23.7674 66.4257 23.5262 67.9317C22.8838 71.9413 22.8158 75.606 23.4623 78.6287C24.1088 81.651 25.5275 84.2535 28.0351 85.7013C30.5428 87.1491 33.5059 87.0764 36.4466 86.1251C39.3875 85.1737 42.5273 83.2825 45.6785 80.7214C46.8621 79.7594 48.0592 78.6932 49.2607 77.5308C50.4621 78.6932 51.6593 79.7594 52.8428 80.7214C55.994 83.2825 59.1338 85.1737 62.0747 86.1251C65.0154 87.0764 67.9786 87.1491 70.4862 85.7013C72.9939 84.2535 74.4125 81.651 75.059 78.6286C75.7055 75.606 75.6376 71.9413 74.9952 67.9317C74.7539 66.4257 74.4291 64.8558 74.0231 63.2342C75.6305 62.7749 77.1525 62.2712 78.5773 61.7272C82.3709 60.2787 85.5787 58.5052 87.8731 56.434C90.1673 54.363 91.7118 51.8331 91.7118 48.9375C91.7118 46.0419 90.1673 43.5121 87.8731 41.4411C85.5787 39.3699 82.3709 37.5963 78.5773 36.1478C77.1525 35.6038 75.6306 35.1002 74.0232 34.6409C74.4291 33.0192 74.7539 31.4494 74.9952 29.9434C75.6376 25.9338 75.7055 22.2691 75.059 19.2464C74.4126 16.2241 72.9939 13.6216 70.4862 12.1738C67.9786 10.726 65.0154 10.7987 62.0748 11.75C59.1338 12.7014 55.994 14.5926 52.8428 17.1537C51.6593 18.1157 50.4621 19.1819 49.2607 20.3443ZM49.2607 26.0847C47.7268 27.7613 46.1892 29.6021 44.6718 31.589C46.18 31.5252 47.7112 31.4925 49.2607 31.4925C50.8102 31.4925 52.3413 31.5252 53.8496 31.589C52.3321 29.6021 50.7945 27.7613 49.2607 26.0847ZM36.5309 36.2891C34.0514 36.6099 31.6885 37.0211 29.4695 37.5111C30.1546 39.6778 30.98 41.9298 31.942 44.2375C32.6408 42.8994 33.3781 41.557 34.1529 40.2151C34.9276 38.8731 35.7215 37.5634 36.5309 36.2891ZM34.0564 48.9376C35.1266 46.7201 36.3144 44.4711 37.617 42.2151C38.9195 39.959 40.2732 37.8058 41.6586 35.7702C44.1141 35.5883 46.6556 35.4925 49.2607 35.4925C51.8657 35.4925 54.4073 35.5883 56.8628 35.7702C58.2481 37.8058 59.6018 39.959 60.9043 42.2151C62.2069 44.4711 63.3947 46.72 64.465 48.9376C63.3947 51.1551 62.2069 53.404 60.9044 55.66C59.6018 57.9161 58.2481 60.0692 56.8628 62.1048C54.4073 62.2867 51.8657 62.3825 49.2607 62.3825C46.6556 62.3825 44.114 62.2867 41.6585 62.1048C40.2732 60.0692 38.9195 57.9161 37.617 55.66C36.3144 53.404 35.1266 51.1551 34.0564 48.9376ZM29.6351 48.9376C27.9879 45.3521 26.6314 41.8386 25.5844 38.4906C24.0894 38.9181 22.6812 39.3844 21.3708 39.8847C17.8442 41.2312 15.128 42.7858 13.3286 44.4102C11.5289 46.0348 10.8096 47.5681 10.8096 48.9375C10.8096 50.3069 11.5289 51.8402 13.3286 53.4648C15.128 55.0892 17.8442 56.6438 21.3708 57.9903C22.6812 58.4907 24.0894 58.9569 25.5844 59.3845C26.6315 56.0365 27.9879 52.523 29.6351 48.9376ZM29.4695 60.364C30.1546 58.1973 30.98 55.9453 31.942 53.6377C32.6408 54.9758 33.3781 56.3181 34.1529 57.66C34.9276 59.0019 35.7215 60.3116 36.5309 61.5859C34.0514 61.2652 31.6885 60.854 29.4695 60.364ZM28.3752 64.2183C27.998 65.7268 27.6977 67.1794 27.4758 68.5645C26.8786 72.2919 26.8668 75.4214 27.3739 77.792C27.881 80.1629 28.8492 81.5525 30.0351 82.2372C31.2211 82.9219 32.9086 83.0656 35.2154 82.3193C37.5219 81.5731 40.2263 79.9981 43.1557 77.6173C44.2442 76.7326 45.3521 75.7462 46.4698 74.6653C44.0939 72.0845 41.7293 69.153 39.4478 65.9337C35.5192 65.5675 31.7982 64.9855 28.3752 64.2183ZM52.0515 74.6653C53.1692 75.7462 54.2771 76.7326 55.3656 77.6173C58.295 79.9981 60.9994 81.5731 63.3059 82.3193C65.6127 83.0656 67.3002 82.9219 68.4862 82.2372C69.6722 81.5525 70.6403 80.1629 71.1475 77.792C71.6545 75.4214 71.6427 72.2918 71.0455 68.5645C70.8236 67.1794 70.5233 65.7268 70.1461 64.2183C66.7231 64.9855 63.0021 65.5675 59.0735 65.9337C56.792 69.153 54.4274 72.0845 52.0515 74.6653ZM53.8496 66.286C52.3321 68.273 50.7945 70.1137 49.2607 71.7905C47.7268 70.1137 46.1892 68.273 44.6717 66.286C46.18 66.3498 47.7112 66.3825 49.2607 66.3825C50.8102 66.3825 52.3414 66.3498 53.8496 66.286ZM61.9905 61.5859C64.4699 61.2652 66.8329 60.854 69.0518 60.364C68.3667 58.1973 67.5413 55.9453 66.5794 53.6377C65.8805 54.9758 65.1432 56.3181 64.3685 57.66C63.5937 59.0019 62.7998 60.3116 61.9905 61.5859ZM68.8862 48.9376C70.5334 52.523 71.8898 56.0365 72.9369 59.3845C74.4319 58.9569 75.8401 58.4907 77.1505 57.9903C80.6771 56.6438 83.3933 55.0892 85.1928 53.4648C86.9925 51.8402 87.7118 50.3069 87.7118 48.9375C87.7118 47.5681 86.9925 46.0348 85.1928 44.4102C83.3933 42.7858 80.6771 41.2312 77.1505 39.8847C75.8401 39.3844 74.432 38.9181 72.937 38.4906C71.8899 41.8386 70.5334 45.3521 68.8862 48.9376ZM70.1461 33.6567C66.7231 32.8895 63.0021 32.3075 59.0734 31.9413C56.792 28.7221 54.4274 25.7906 52.0515 23.2098C53.1692 22.1289 54.2771 21.1425 55.3656 20.2578C58.2951 17.877 60.9994 16.302 63.306 15.5558C65.6128 14.8095 67.3003 14.9532 68.4862 15.6379C69.6722 16.3226 70.6404 17.7122 71.1475 20.0831C71.6545 22.4537 71.6427 25.5833 71.0456 29.3106C70.8237 30.6957 70.5234 32.1483 70.1461 33.6567ZM69.0519 37.5111C68.3667 39.6778 67.5414 41.9298 66.5794 44.2375C65.8805 42.8993 65.1432 41.557 64.3684 40.2151C63.5937 38.8731 62.7998 37.5634 61.9904 36.2891C64.4699 36.6099 66.8329 37.0211 69.0519 37.5111ZM56.7993 48.9376C56.7993 53.101 53.4241 56.4762 49.2607 56.4762C45.0972 56.4762 41.7221 53.101 41.7221 48.9376C41.7221 44.7741 45.0972 41.3989 49.2607 41.3989C53.4241 41.3989 56.7993 44.7741 56.7993 48.9376Z" fill="#F60390"/>
</g>
<defs>
<filter id="filter0_d_265_89" x="-4" y="-4" width="108" height="108" filterUnits="userSpaceOnUse" color-interpolation-filters="sRGB">
<feFlood flood-opacity="0" result="BackgroundImageFix"/>
<feColorMatrix in="SourceAlpha" type="matrix" values="0 0 0 0 0 0 0 0 0 0 0 0 0 0 0 0 0 0 127 0" result="hardAlpha"/>
<feOffset dy="2"/>
<feGaussianBlur stdDeviation="3"/>
<feComposite in2="hardAlpha" operator="out"/>
<feColorMatrix type="matrix" values="0 0 0 0 0.964706 0 0 0 0 0.0117647 0 0 0 0 0.564706 0 0 0 0.8 0"/>
<feBlend mode="normal" in2="BackgroundImageFix" result="effect1_dropShadow_265_89"/>
<feBlend mode="normal" in="SourceGraphic" in2="effect1_dropShadow_265_89" result="shape"/>
</filter>
</defs>
</svg>
