<svg width="96" height="96" viewBox="0 0 96 96" fill="none" xmlns="http://www.w3.org/2000/svg">
<g filter="url(#filter0_d_265_269)">
<path d="M80.8243 17.7837C78.4296 8.38502 62.8509 5.29502 48.0961 10.548C39.3154 13.6638 29.8137 18.5562 22.9899 24.9422C14.8787 32.5385 13.5655 39.1562 14.1062 41.9114C15.986 51.6707 29.3502 58.0309 34.8349 62.7689V62.7946C33.2127 63.5929 21.3677 69.5926 18.5867 75.7211C15.6512 82.1843 19.0502 86.8193 21.2905 87.4631C28.2429 89.3943 35.3757 85.9181 39.2124 80.2016C42.9204 74.6911 42.6114 67.5584 40.9892 64.0049C43.2037 63.4126 45.8044 63.1551 49.0746 63.5414C58.3446 64.6229 60.1729 70.4166 59.8381 72.8371C59.4776 75.2576 57.5464 76.5966 56.9026 77.0086C56.2589 77.4206 56.0529 77.5494 56.1044 77.8584C56.1816 78.2961 56.4906 78.2704 57.0314 78.1931C57.8039 78.0644 61.8981 76.2104 62.0784 71.7556C62.3101 66.0649 56.8511 59.7046 47.2206 59.8849C43.2552 59.9621 40.7574 60.3226 38.9549 60.9921C38.8262 60.8376 38.6974 60.6831 38.5429 60.5286C32.5689 54.1684 21.548 49.6622 22.0372 41.1132C22.2175 37.9974 23.2989 29.809 43.2036 19.8952C59.5291 11.7583 72.5843 13.9985 74.8503 18.9682C78.0691 26.0495 67.8721 39.2334 50.9029 41.1389C44.4397 41.8599 41.0407 39.3622 40.1909 38.4352C39.2897 37.4567 39.1609 37.4052 38.8262 37.5854C38.2854 37.8944 38.6202 38.7442 38.8262 39.2592C39.3412 40.5724 41.4012 42.9157 44.9546 44.0744C48.0704 45.1044 55.6409 45.6709 64.8336 42.1174C75.1593 38.0747 83.1675 27.028 80.8243 17.7837ZM37.1267 65.6786C37.8992 68.5369 37.8219 71.1891 37.0237 73.5839C36.9464 73.8414 36.8434 74.1246 36.7404 74.3821C36.6374 74.6396 36.5087 74.8971 36.4057 75.1546C35.7877 76.4164 34.9637 77.6266 33.9594 78.7081C30.8952 82.0556 26.5949 83.3173 24.7409 82.2616C22.7582 81.1028 23.7367 76.3906 27.3159 72.6054C31.1527 68.5626 36.6632 65.9361 36.6632 65.9361V65.9104C36.7919 65.8589 36.9722 65.7559 37.1267 65.6786Z" fill="#F60390"/>
</g>
<defs>
<filter id="filter0_d_265_269" x="-6" y="-4" width="108" height="108" filterUnits="userSpaceOnUse" color-interpolation-filters="sRGB">
<feFlood flood-opacity="0" result="BackgroundImageFix"/>
<feColorMatrix in="SourceAlpha" type="matrix" values="0 0 0 0 0 0 0 0 0 0 0 0 0 0 0 0 0 0 127 0" result="hardAlpha"/>
<feOffset dy="2"/>
<feGaussianBlur stdDeviation="3"/>
<feComposite in2="hardAlpha" operator="out"/>
<feColorMatrix type="matrix" values="0 0 0 0 0.964706 0 0 0 0 0.0117647 0 0 0 0 0.564706 0 0 0 0.8 0"/>
<feBlend mode="normal" in2="BackgroundImageFix" result="effect1_dropShadow_265_269"/>
<feBlend mode="normal" in="SourceGraphic" in2="effect1_dropShadow_265_269" result="shape"/>
</filter>
</defs>
</svg>
